<svg xmlns="http://www.w3.org/2000/svg" viewBox="0 0 806.7 814.64"><defs><style>.cls-1,.cls-2,.cls-3,.cls-4{fill:none;}.cls-1,.cls-2{stroke:#606066;}.cls-1,.cls-2,.cls-3,.cls-4,.cls-7{stroke-miterlimit:10;}.cls-1{stroke-width:3px;}.cls-2,.cls-3,.cls-4,.cls-7{stroke-width:2px;}.cls-3{stroke:#ff3162;}.cls-4,.cls-7{stroke:#616368;}.cls-5{fill:#ffa18d;}.cls-6{fill:#0a1a33;}.cls-7{fill:#080808;}.cls-8{fill:#656f7e;}.cls-9{fill:#ff8084;}.cls-10{fill:#ff8b8f;}.cls-11{fill:#364358;}</style></defs><g id="Layer_2" data-name="Layer 2"><g id="Objects"><polygon class="cls-1" points="398.19 312.46 409.94 312.46 404.07 334.43 398.19 356.39 392.31 334.43 386.44 312.46 398.19 312.46"/><polygon class="cls-1" points="416.8 326.72 425.09 331.39 411.47 345.87 397.86 360.34 403.18 341.19 408.5 322.05 416.8 326.72"/><polygon class="cls-1" points="380.89 326.78 389.15 322.05 394.61 341.17 400.05 360.28 386.34 345.89 372.63 331.51 380.89 326.78"/><polygon class="cls-1" points="418.81 335.33 424.84 339.92 412.81 349.48 400.78 359.04 406.78 344.89 412.78 330.74 418.81 335.33"/><polygon class="cls-1" points="377.56 335.33 371.53 339.92 383.56 349.48 395.6 359.04 389.6 344.89 383.59 330.74 377.56 335.33"/><path class="cls-1" d="M412.89,445.61c-1,11.78-3.78,19.35-14.73,19.35h0c-9.85,0-11.79-5.93-13.38-17.64-2.68-19.84-8-73.38-8-73.38a21.4,21.4,0,0,1,21.41-21.41h0a21.41,21.41,0,0,1,21.42,21.41S414.87,423.1,412.89,445.61Z"/><line class="cls-1" x1="377.57" y1="373.21" x2="385.84" y2="373.21"/><line class="cls-1" x1="406.29" y1="381" x2="416.75" y2="381"/><line class="cls-1" x1="387.79" y1="389.76" x2="393.39" y2="389.76"/><line class="cls-1" x1="396.31" y1="397.55" x2="416.02" y2="397.55"/><line class="cls-1" x1="380.73" y1="408.01" x2="393.88" y2="408.01"/><line class="cls-1" x1="395.34" y1="415.07" x2="407.75" y2="415.07"/><line class="cls-1" x1="405.55" y1="423.34" x2="414.32" y2="423.34"/><line class="cls-1" x1="382.93" y1="433.32" x2="398.26" y2="433.32"/><line class="cls-1" x1="394.12" y1="445.24" x2="411.4" y2="445.24"/><line class="cls-1" x1="388.28" y1="458.63" x2="397.04" y2="458.63"/><line class="cls-1" x1="406.53" y1="452.06" x2="400.69" y2="452.06"/><line class="cls-1" x1="393.14" y1="364.45" x2="403.13" y2="364.45"/><rect class="cls-2" x="286.13" y="256.93" width="236.66" height="255.41" rx="26.19"/><path class="cls-1" d="M712.32,330s-1.94,13.53-11.38,20.17-22.84,3.9-22.84,3.9,1.94-13.52,11.38-20.17S712.32,330,712.32,330Z"/><path class="cls-1" d="M678.1,409.2s1.94,13.52,11.38,20.17,22.84,3.9,22.84,3.9-1.94-13.52-11.38-20.17S678.1,409.2,678.1,409.2Z"/><path class="cls-1" d="M745.4,381.5s-3.11,13.31,3.29,22.93,19.86,11.92,19.86,11.92,3.1-13.3-3.29-22.92S745.4,381.5,745.4,381.5Z"/><path class="cls-1" d="M768.55,346.93s3.1,13.3-3.29,22.93-19.86,11.92-19.86,11.92-3.11-13.3,3.29-22.92S768.55,346.93,768.55,346.93Z"/><path class="cls-1" d="M746.55,382s-28.82,33.61-64.11,33.4-63.71-34.18-63.71-34.18,28.82-33.61,64.12-33.39S746.55,382,746.55,382Z"/><path class="cls-1" d="M618.73,381.25a119.32,119.32,0,0,0,31.48,25.2c20.68,0,31-14.54,31-24.42.06-10.08-10.63-25.2-31.48-25.2A119.58,119.58,0,0,0,618.73,381.25Z"/><path class="cls-1" d="M653.17,376.5a4.95,4.95,0,1,1-4.94-5A4.94,4.94,0,0,1,653.17,376.5Z"/><rect class="cls-2" x="569.04" y="256.93" width="236.66" height="255.41" rx="26.19"/><path class="cls-1" d="M420.62,739.87V694.44H405v45.43a9.66,9.66,0,1,0,7.83,15.72,9.66,9.66,0,1,0,7.82-15.72Z"/><path class="cls-1" d="M447.61,648.08c0-22.86-15.59-41.39-34.81-41.39S378,625.22,378,648.08c0,17.08,13.83,26.19,21.1,38.06,1.14,1.86,0,8.72,0,8.72a9.41,9.41,0,0,0,9.41,9.41h8.61a9.42,9.42,0,0,0,9.41-9.41s-1.15-6.86,0-8.72C433.79,674.27,447.61,665.16,447.61,648.08Z"/><rect class="cls-2" x="293.19" y="558.23" width="236.66" height="255.41" rx="26.19"/><rect class="cls-3" x="89.92" y="105.15" width="236.66" height="255.41" rx="26.19"/><path class="cls-1" d="M733,733.32A15.62,15.62,0,0,1,717.33,749H658.4a15.62,15.62,0,0,1-15.62-15.63V643.14a15.62,15.62,0,0,1,15.62-15.62h58.93A15.62,15.62,0,0,1,733,643.14Z"/><rect class="cls-1" x="658.02" y="613.23" width="59.69" height="14.28"/><rect class="cls-1" x="642.78" y="662.21" width="90.17" height="44.9"/><path class="cls-1" d="M720.78,685.94A32.91,32.91,0,1,1,687.87,653,32.9,32.9,0,0,1,720.78,685.94Z"/><rect class="cls-2" x="568.26" y="553.64" width="236.66" height="255.41" rx="26.19"/><path class="cls-4" d="M127.08,145.57c1.36-.36,86.5,78.76,86.5,78.76l54.68-64.28,20.17,16.85s-60.38,108.5-69,107S123,211.68,123,211.68,102.86,151.9,127.08,145.57Z"/><path class="cls-5" d="M192.14,251.8s20.69-26.83,21.44-27.47c.59-.51,20.19-3.31,28.61-4.49a3.22,3.22,0,0,1,3.64,3.62c-.25,2-2.8,3.42-4.05,4.18-4.32,2.64-16.76,3.23-17.41,6.81s23.24,6.82,23.24,6.82,23.85-2.79,26-1.78-1.15,11-8.18,15.17-60.76,15.15-60.76,15.15Z"/><path class="cls-6" d="M203.78,270.4l-12.49-18a1.05,1.05,0,0,1,0-1.23c4.87-6.31,20.82-26.95,21.58-27.61.38-.32.88-.76,29.14-4.73a4.19,4.19,0,0,1,3.59,1.19,4.26,4.26,0,0,1,1.23,3.59c-.31,2.36-2.94,4-4.35,4.81l-.19.11c-1.9,1.16-5,1.9-8.27,2.67s-8.25,1.95-8.65,3.38c.16.25,1.47,1.74,11.32,3.78,5.06,1,10.05,1.75,10.9,1.87,5.82-.67,24.2-2.71,26.39-1.66a2.39,2.39,0,0,1,1.22,2.29c.16,3.66-3.39,11.2-9.32,14.7-7.09,4.19-58.88,14.82-61.08,15.27l-.2,0A1,1,0,0,1,203.78,270.4Zm43.95-28.11a1.13,1.13,0,0,1-.26,0c-3.52-.48-21.21-3-23.72-6.48a2,2,0,0,1-.4-1.54c.51-2.79,5-3.86,10.22-5.09,3-.7,6.05-1.43,7.67-2.42l.2-.12c1.11-.68,3.19-1.93,3.37-3.31a2.2,2.2,0,0,0-2.48-2.47c-15.88,2.24-26.54,3.88-28.15,4.34-1.44,1.67-12.89,16.43-20.76,26.63l11.67,16.83c6.2-1.29,53.39-11.12,59.77-14.89A19.17,19.17,0,0,0,273,242.34a3.66,3.66,0,0,0,.05-1.93C271.35,239.94,258.93,241,247.73,242.29Z"/><path class="cls-6" d="M236.77,250.39h.13c.08,0,8.5-1.07,14.1-1.4s21.67-3,22.34-3.15a1,1,0,0,0,.85-1.2,1,1,0,0,0-1.19-.84c-.17,0-16.53,2.8-22.12,3.13s-14.16,1.39-14.24,1.41a1,1,0,0,0-.9,1.15A1,1,0,0,0,236.77,250.39Z"/><path class="cls-6" d="M240.1,255.69h.13l14.87-1.84.08,0,15.13-3.13a1,1,0,1,0-.42-2L254.8,251.8,240,253.63a1,1,0,0,0-.9,1.16A1,1,0,0,0,240.1,255.69Z"/><path class="cls-7" d="M23.61,153.53a38.51,38.51,0,0,0-12,9.15,45.78,45.78,0,0,0-8.8,18c-7.6,32.64,10.91,88.38,10.91,88.38,6,19,16.11,48.87,28.88,91.61,46.35-.66,92.7.74,139,.07,0,0-15.7-150.73-30.37-183.06s-28.83-33.94-28.83-33.94a139.45,139.45,0,0,0-98.86,9.8Z"/><path class="cls-4" d="M10,227.64s62.73,100.88,77.47,103.5,119.49-59.28,119.49-59.28L192.14,248l-89.39,29.47L45.54,195.48"/><path class="cls-5" d="M270.7,151.71l9.82-12.5a6.49,6.49,0,0,1,1.08-1.08c.07-.12.14-.24.22-.35l18.06-26.26a4,4,0,0,1,5.55-1h0a4,4,0,0,1,1,5.54l-15.73,22.87,1.34,1,20.25-23.29a4,4,0,0,1,5.63-.4h0a4,4,0,0,1,.39,5.63l-20,23,6.88,5.39a6.57,6.57,0,0,1,1.1,9.19L296.49,172a15,15,0,0,1-21,2.52l-2.31-1.82A15,15,0,0,1,270.7,151.71Z"/><path class="cls-6" d="M274.9,175.3l-2.32-1.82a16,16,0,0,1-2.69-22.4l9.82-12.51a7.66,7.66,0,0,1,1.09-1.12c.05-.09.11-.17.17-.26L299,110.94a5,5,0,0,1,7-1.29,5,5,0,0,1,1.29,7l-13.88,20.18L311.53,116a5,5,0,1,1,7.58,6.59l-19.28,22.17,6,4.73a7.59,7.59,0,0,1,1.27,10.64l-9.82,12.5a16,16,0,0,1-22.4,2.69Zm38.19-58-20.25,23.3a1,1,0,0,1-1.42.14l-1.34-1.05a1,1,0,0,1-.21-1.4l15.73-22.86a3,3,0,0,0-4.87-3.35l-18.06,26.26a2.26,2.26,0,0,0-.16.26,1,1,0,0,1-.27.31,6,6,0,0,0-.91.91l-9.82,12.5h0a13.94,13.94,0,0,0,2.34,19.51l2.32,1.82a13.91,13.91,0,0,0,19.51-2.35l9.82-12.5a5.51,5.51,0,0,0-.93-7.73l-6.87-5.4a1,1,0,0,1-.39-.72,1,1,0,0,1,.24-.77l20-23a3,3,0,0,0-.29-4.17,3,3,0,0,0-4.17.29Z"/><path class="cls-5" d="M267.94,164.26a70.43,70.43,0,0,1-1.25-17.49,155.48,155.48,0,0,1,2.51-18.24h0a3.23,3.23,0,0,1,3.63-2.94,4.06,4.06,0,0,1,3.32,3.68,114.45,114.45,0,0,1,.71,13.88c4.08,4.74,5.37,8.75,5.18,16.94"/><path class="cls-6" d="M267.94,165.29a.68.68,0,0,0,.2,0,1,1,0,0,0,.82-1.21,69.83,69.83,0,0,1-1.24-17.23,152.51,152.51,0,0,1,2.5-18.1s0-.08,0-.12a2.21,2.21,0,0,1,2.46-2,3,3,0,0,1,2.43,2.78v0a94.74,94.74,0,0,1,.67,12c0,.62,0,1.2,0,1.74a1.09,1.09,0,0,0,.25.65c4,4.61,5.12,8.41,4.93,16.24a1,1,0,0,0,1,1.06,1,1,0,0,0,1.06-1c.2-8.18-1.07-12.46-5.18-17.35,0-.43,0-.88,0-1.36a98,98,0,0,0-.7-12.27,5.11,5.11,0,0,0-4.19-4.57,4.25,4.25,0,0,0-3.21.89,4.31,4.31,0,0,0-1.59,2.93,155.66,155.66,0,0,0-2.52,18.33,71.63,71.63,0,0,0,1.27,17.75A1,1,0,0,0,267.94,165.29Z"/><path class="cls-5" d="M307.36,147.11l-9.63,8.33a4,4,0,0,1-5.62-.41h0a4,4,0,0,1,.41-5.62l9.62-8.33a4,4,0,0,1,5.63.4h0A4,4,0,0,1,307.36,147.11Z"/><path class="cls-5" d="M311.13,154.79l-9.63,8.33a4,4,0,0,1-5.62-.4h0a4,4,0,0,1,.4-5.63l9.63-8.33a4,4,0,0,1,5.62.41h0A4,4,0,0,1,311.13,154.79Z"/><path class="cls-6" d="M291.33,155.71a5,5,0,0,0,3.32,1.71,5,5,0,0,0,4.24,7.71,5,5,0,0,0,3.29-1.23l9.62-8.33a5,5,0,0,0-2.81-8.79,5,5,0,0,0-7.52-6.48l-9.63,8.33A5,5,0,0,0,291.33,155.71ZM296,159.9a2.91,2.91,0,0,1,1-2l9.63-8.33a3,3,0,1,1,3.86,4.47l-9.63,8.33a3,3,0,0,1-4.16-.3A2.9,2.9,0,0,1,296,159.9Zm-3.77-7.69a3,3,0,0,1,1-2l9.63-8.33a3,3,0,1,1,3.87,4.47l-9.63,8.33a3,3,0,0,1-2.15.71,3,3,0,0,1-2-1A3,3,0,0,1,292.18,152.21Z"/><path class="cls-8" d="M132,67.48c1.06-2.07,12.71-49.79-26.59-56.28s-61.16,9-68,18.69-8.17,37.7,2,52.94,22.16,38.65,20.39,53.09Z"/><path class="cls-6" d="M59.39,136.75a.91.91,0,0,1-.5-.94c1-8.6-3.61-27.49-20.24-52.46-4.68-7-7.42-17.63-7.51-29.07-.08-10.42,2-20,5.55-24.92,2.12-3,8.52-10.5,22.26-15.73,13.42-5.11,29.12-6.24,46.65-3.34,11.91,2,20.4,7.83,25.24,17.43,8.37,16.63,2.77,38.74,2,40.19a1.05,1.05,0,0,1-.18.25L60.45,136.6a.92.92,0,0,1-.64.25A.9.9,0,0,1,59.39,136.75ZM129,28.24C124.43,19.39,116.45,14,105.3,12.12,67.05,5.81,45.13,20.66,38.21,30.43,34.92,35.08,32.92,44.21,33,54.26c.09,11.09,2.71,21.32,7.2,28.06,10.46,15.71,21,37,20.71,51.28l70.35-66.66C132.13,64.67,136.94,43.56,129,28.24Z"/><path class="cls-5" d="M93.15,143.43l4.27-22L59.8,91.71c-.17-1,4.05,44.3-5.69,53.51,0,0,37.61,24.76,48.54,28.07Z"/><path class="cls-6" d="M102.38,174.18C91.44,170.86,55.14,147,53.6,146a.93.93,0,0,1-.13-1.46c5.35-5,7.39-24.48,5.45-52,0-.25,0-.48,0-.69h0c0-.61.15-1,.8-1.1a1,1,0,0,1,.76.26L98,120.75a.92.92,0,0,1,.34.91l-4.22,21.71L103.54,173a.92.92,0,0,1-.89,1.21A.84.84,0,0,1,102.38,174.18ZM60.86,93.74c.59,8.89.77,17.06.53,24.29-.46,13.76-2.43,22.84-5.85,27,5.52,3.61,34.35,22.28,45.66,26.75l-8.94-28.08a1,1,0,0,1,0-.46l4.15-21.39Z"/><path class="cls-5" d="M137.73,59.44c4.49,26.25-13.34,70.17-33.43,73.6S64.28,118,59.8,91.71,68,41.39,88.06,38,133.25,33.18,137.73,59.44Z"/><path class="cls-6" d="M58.88,91.87C54.32,65.15,67.33,40.55,87.9,37c9.25-1.58,21.15-3,31.09-.37,11,2.95,17.6,10.56,19.66,22.61,2.16,12.65-.74,30.24-7.56,45.89-7.16,16.4-17.11,27.16-26.63,28.78a28.82,28.82,0,0,1-5,.43C80.7,134.38,63.08,116.44,58.88,91.87Zm77.94-32.28c-2-11.42-7.95-18.34-18.32-21.13-9.59-2.58-21.22-1.13-30.29.41-19.55,3.35-31.89,27-27.49,52.69,4,23.66,20.86,41,38.76,41a27.16,27.16,0,0,0,4.66-.4c8.9-1.52,18.34-11.87,25.24-27.7,6.69-15.33,9.54-32.51,7.44-44.83l.91-.15Z"/><path class="cls-5" d="M129.14,76a37.68,37.68,0,0,0,7.17,14.9,5.16,5.16,0,0,1-2.21,8l-3.54,1.35"/><path class="cls-6" d="M130.56,101.19a1,1,0,0,0,.34-.06l3.53-1.36a6,6,0,0,0,3.72-4.12A6,6,0,0,0,137,90.31a36.92,36.92,0,0,1-7-14.49.93.93,0,0,0-1.09-.74.92.92,0,0,0-.74,1.08,38.22,38.22,0,0,0,7.35,15.32,4.11,4.11,0,0,1,.77,3.69A4.23,4.23,0,0,1,133.76,98l-3.53,1.35a.93.93,0,0,0-.53,1.21A.91.91,0,0,0,130.56,101.19Z"/><path class="cls-9" d="M123.39,105.18s-12.2,5-32.76.9C90.63,106.08,100.28,136.4,123.39,105.18Z"/><path class="cls-10" d="M113.29,114.56A26.51,26.51,0,0,0,95,114"/><path class="cls-6" d="M89.82,106.34c.15.5,4,12.21,12.75,13.67a11.66,11.66,0,0,0,1.78.14c6,0,12.62-4.85,19.73-14.46a.86.86,0,0,0,0-1,.84.84,0,0,0-1-.27c-.12,0-12.24,4.83-32.26.85a.85.85,0,0,0-.81.27A.83.83,0,0,0,89.82,106.34Zm6.58,8.11a26.1,26.1,0,0,1,16.28.78c-3.51,2.55-6.8,3.59-9.83,3.09A11.36,11.36,0,0,1,96.4,114.45ZM92,107.21c14.46,2.62,24.56.83,29.08-.38a49,49,0,0,1-7,7.34,1,1,0,0,0-.39-.38A27.06,27.06,0,0,0,95.21,113,28.58,28.58,0,0,1,92,107.21Z"/><path class="cls-6" d="M119.19,70.76a1.45,1.45,0,0,0,.92-.32,1.49,1.49,0,0,0,.25-2.09c-6.21-7.9-20.19-5.72-20.78-5.63a1.49,1.49,0,0,0,.47,2.94h0c.13,0,12.85-2,18,4.53A1.46,1.46,0,0,0,119.19,70.76Z"/><circle class="cls-6" cx="107.56" cy="79.13" r="3.79"/><path class="cls-6" d="M131.29,77.76a3.1,3.1,0,1,0,3.14-3A3.1,3.1,0,0,0,131.29,77.76Z"/><circle class="cls-9" cx="86.06" cy="94.54" r="4.8" transform="translate(-39.8 116.93) rotate(-57.77)"/><path class="cls-11" d="M84.79,17.35C69.27.88,31.68,14.55,31.26,48.87L57.13,60.51A30.2,30.2,0,0,0,90.8,54.43,85.73,85.73,0,0,0,100,44.2C104.86,37,84.79,17.35,84.79,17.35Z"/><path class="cls-6" d="M56.75,61.36,30.88,49.71a.93.93,0,0,1-.55-.86c.25-20.26,12.91-32.38,24.68-37,11.5-4.48,23.45-2.59,30.44,4.81A114.7,114.7,0,0,1,95,27.52c6.12,8.08,8.07,13.86,5.81,17.2a83.78,83.78,0,0,1-9.31,10.37,31.29,31.29,0,0,1-34.71,6.27ZM55.68,13.62c-11.08,4.32-23,15.68-23.47,34.65L57.52,59.66a29.42,29.42,0,0,0,32.63-5.89,82.94,82.94,0,0,0,9.08-10.09c1.71-2.53-.33-7.87-5.74-15A111.15,111.15,0,0,0,84.14,18l0,0C80,13.62,74,11.33,67.37,11.33A32.16,32.16,0,0,0,55.68,13.62Zm29.1,3.73h0Z"/><path class="cls-11" d="M100,44.2c29.54,6.29,51.33,1.87,54.88-8.16.51-1.45,2.55-8.45-9.15-21.29A73.21,73.21,0,0,0,122.78,3.81C117.33,2.3,107.17-.4,94.87,1.7c-12.06,2.05-25,8.5-25,8.5s5.6,3.42,11.77,7.89C93.83,26.89,96.15,31,96.87,32.35A27.56,27.56,0,0,1,100,44.2Z"/><path class="cls-6" d="M99.8,45.11a.93.93,0,0,1-.73-.87,26.45,26.45,0,0,0-3-11.45c-1.83-3.41-6.85-8.1-14.9-13.94C75.08,14.45,69.49,11,69.43,11a1,1,0,0,1-.44-.84.93.93,0,0,1,.51-.79c.13-.06,13.15-6.54,25.21-8.59C107.47-1.39,118,1.51,123,2.91A73.62,73.62,0,0,1,146.27,14a.86.86,0,0,1,.14.13c3.73,4.09,12.1,14.44,9.34,22.23C153.09,43.89,141.46,48,125.39,48A124.61,124.61,0,0,1,99.8,45.11ZM122.53,4.7C117.61,3.34,107.37.51,95,2.61c-9.4,1.61-19.43,6-23.17,7.7,2.08,1.31,6.12,3.93,10.39,7C94.73,26.4,97,30.55,97.69,31.91a28,28,0,0,1,3.2,11.53c13.55,2.82,26.37,3.49,36.14,1.88,9.3-1.52,15.32-4.93,17-9.59,2.47-7-6.09-17.19-8.9-20.28A72,72,0,0,0,122.53,4.7ZM100,44.2h0Z"/><path class="cls-6" d="M100.94,41.46c.66,0,6.37-.09,14.63-3.08,7.91-2.87,19.74-9.07,31.21-22.32a.92.92,0,0,0-.09-1.31.94.94,0,0,0-1.32.1C134.2,27.75,122.71,33.8,115,36.59a44.54,44.54,0,0,1-14.13,3h0a.93.93,0,0,0,0,1.86Z"/><path class="cls-6" d="M64.25,59.33a.92.92,0,0,0,.9-.71c6.71-27.44,28.14-28.88,28.36-28.89a.93.93,0,0,0-.1-1.86A29.46,29.46,0,0,0,81,32.14c-6,3.6-14,11-17.64,26A.93.93,0,0,0,64,59.3.78.78,0,0,0,64.25,59.33Z"/><path class="cls-6" d="M76.11,58a.94.94,0,0,0,.93-.9h0c0-.13.61-12.7,11-19.18a.93.93,0,1,0-1-1.58C75.81,43.3,75.2,56.43,75.18,57a.92.92,0,0,0,.9,1Z"/><path class="cls-6" d="M91.32,22.63a1,1,0,0,0,.8-.44c.07-.12,7.16-11.39,15.46-9.72a.93.93,0,1,0,.37-1.82c-4-.81-8.31.79-12.44,4.61a32.12,32.12,0,0,0-5,6,.93.93,0,0,0,.31,1.28A1,1,0,0,0,91.32,22.63Z"/><path class="cls-5" d="M62.93,75s-2.74-9.54-12.87-5.31-5.41,18,.56,20.36a32.52,32.52,0,0,0,12.45,2"/><path class="cls-6" d="M62,93c.66,0,1.06,0,1.12,0A.93.93,0,0,0,63,91.15a31.76,31.76,0,0,1-12.06-2c-3.15-1.25-5.84-6-5.88-10.49a8.2,8.2,0,0,1,5.34-8.14c2.91-1.22,5.42-1.34,7.46-.36A8.9,8.9,0,0,1,62,75.25a.93.93,0,0,0,1.79-.51,10.71,10.71,0,0,0-5.15-6.23c-2.54-1.22-5.56-1.12-9,.31a10,10,0,0,0-6.48,9.88c.05,5.2,3.21,10.67,7.06,12.2A33.12,33.12,0,0,0,62,93Z"/><path class="cls-6" d="M58.82,84.05A.51.51,0,0,0,59,84a.55.55,0,0,0,.36-.7c-1.12-3.51-2.8-5.75-5-6.67a5.94,5.94,0,0,0-4.65.06.56.56,0,1,0,.5,1h0a4.84,4.84,0,0,1,3.73,0c1.87.79,3.33,2.8,4.35,6A.57.57,0,0,0,58.82,84.05Z"/><path class="cls-6" d="M52.38,85.42a.55.55,0,0,0,.45-.23l3.82-5.38a.57.57,0,0,0-.14-.78.56.56,0,0,0-.78.13l-3.81,5.38a.57.57,0,0,0,.14.78A.53.53,0,0,0,52.38,85.42Z"/><path class="cls-6" d="M132,69a1.47,1.47,0,0,0,1.09-.48c1.43-1.55,3.61-3.28,4.44-3.29a1.49,1.49,0,1,0,0-3h0c-2.52,0-5.7,3.25-6.62,4.24a1.48,1.48,0,0,0,.09,2.1A1.44,1.44,0,0,0,132,69Z"/></g></g></svg>