<svg xmlns="http://www.w3.org/2000/svg" viewBox="0 0 725 710.49"><defs><style>.cls-1,.cls-2,.cls-3,.cls-4{fill:none;stroke-miterlimit:10;}.cls-1{stroke:#fff;}.cls-1,.cls-2{stroke-width:3px;}.cls-2,.cls-3{stroke:#606066;}.cls-3,.cls-4{stroke-width:2px;}.cls-4{stroke:#ff3162;}</style></defs><g id="Layer_2" data-name="Layer 2"><g id="Objects"><path class="cls-1" d="M180.29,116.82c-9.38-29.64-36.55-23.9-43.57-15.82-3.51,4-7.3,4.39-10.14,4.71-2.85-.32-6.64-.68-10.14-4.71-7-8.08-34.46-13.51-44.77,15.82-9.72,27.66,21.62,86,45.76,78.2,2.11-.67,4.35-2.8,9.15-3.2,4.78.4,7,2.58,9.14,3.2C156.27,201,190.3,148.46,180.29,116.82Z"/><path class="cls-1" d="M126.73,103.73A32.35,32.35,0,0,0,94.37,71.36"/><path class="cls-1" d="M161.35,63.06s-2.54,15.43-13.23,21.85-25.51,1.37-25.51,1.37,2.54-15.44,13.23-21.85S161.35,63.06,161.35,63.06Z"/><polygon class="cls-2" points="309.26 208.31 321.02 208.31 315.14 230.28 309.26 252.25 303.39 230.28 297.51 208.31 309.26 208.31"/><polygon class="cls-2" points="327.88 222.57 336.17 227.24 322.55 241.72 308.94 256.19 314.26 237.04 319.57 217.9 327.88 222.57"/><polygon class="cls-2" points="291.96 222.63 300.23 217.91 305.68 237.02 311.12 256.13 297.42 241.75 283.7 227.36 291.96 222.63"/><polygon class="cls-2" points="329.89 231.18 335.92 235.77 323.89 245.33 311.85 254.89 317.86 240.74 323.86 226.59 329.89 231.18"/><polygon class="cls-2" points="288.64 231.18 282.61 235.77 294.64 245.33 306.68 254.89 300.67 240.74 294.67 226.59 288.64 231.18"/><path class="cls-2" d="M324,341.46c-1,11.78-3.77,19.35-14.72,19.35h0c-9.86,0-11.8-5.92-13.38-17.64-2.68-19.84-8-73.38-8-73.38a21.42,21.42,0,0,1,21.42-21.41h0a21.42,21.42,0,0,1,21.42,21.41S325.94,319,324,341.46Z"/><line class="cls-2" x1="288.64" y1="269.06" x2="296.92" y2="269.06"/><line class="cls-2" x1="317.37" y1="276.85" x2="327.83" y2="276.85"/><line class="cls-2" x1="298.87" y1="285.61" x2="304.47" y2="285.61"/><line class="cls-2" x1="307.39" y1="293.4" x2="327.1" y2="293.4"/><line class="cls-2" x1="291.81" y1="303.86" x2="304.95" y2="303.86"/><line class="cls-2" x1="306.41" y1="310.92" x2="318.82" y2="310.92"/><line class="cls-2" x1="316.63" y1="319.2" x2="325.4" y2="319.2"/><line class="cls-2" x1="294" y1="329.17" x2="309.33" y2="329.17"/><line class="cls-2" x1="305.2" y1="341.09" x2="322.47" y2="341.09"/><line class="cls-2" x1="299.36" y1="354.48" x2="308.12" y2="354.48"/><line class="cls-2" x1="317.61" y1="347.91" x2="311.77" y2="347.91"/><line class="cls-2" x1="304.22" y1="260.3" x2="314.2" y2="260.3"/><rect class="cls-3" x="197.2" y="152.78" width="236.66" height="255.41" rx="26.19"/><path class="cls-2" d="M623.39,225.86S621.46,239.39,612,246s-22.83,3.9-22.83,3.9,1.94-13.53,11.38-20.17S623.39,225.86,623.39,225.86Z"/><path class="cls-2" d="M589.18,305.05s1.94,13.52,11.38,20.17,22.83,3.9,22.83,3.9S621.46,315.6,612,309,589.18,305.05,589.18,305.05Z"/><path class="cls-2" d="M656.48,277.35s-3.11,13.31,3.29,22.93,19.85,11.92,19.85,11.92,3.11-13.3-3.28-22.92S656.48,277.35,656.48,277.35Z"/><path class="cls-2" d="M679.62,242.78s3.11,13.31-3.28,22.93-19.86,11.92-19.86,11.92-3.11-13.3,3.28-22.92S679.62,242.78,679.62,242.78Z"/><path class="cls-2" d="M657.62,277.88s-28.81,33.62-64.11,33.4-63.7-34.18-63.7-34.18,28.82-33.61,64.11-33.39S657.62,277.88,657.62,277.88Z"/><path class="cls-2" d="M529.81,277.1a119.32,119.32,0,0,0,31.48,25.2c20.68,0,31-14.54,31-24.42.06-10.08-10.62-25.19-31.48-25.19A119.48,119.48,0,0,0,529.81,277.1Z"/><path class="cls-2" d="M564.25,272.35a5,5,0,1,1-4.94-5A4.94,4.94,0,0,1,564.25,272.35Z"/><rect class="cls-3" x="480.12" y="152.78" width="236.66" height="255.41" rx="26.19"/><path class="cls-2" d="M331.69,635.72V590.29H316.05v45.43a9.66,9.66,0,1,0,7.83,15.72,9.66,9.66,0,1,0,7.81-15.72Z"/><path class="cls-2" d="M358.68,543.94c0-22.87-15.58-41.4-34.8-41.4s-34.82,18.53-34.82,41.4c0,17.07,13.82,26.18,21.1,38.06,1.14,1.85,0,8.71,0,8.71a9.41,9.41,0,0,0,9.41,9.41h8.6a9.41,9.41,0,0,0,9.41-9.41s-1.14-6.86,0-8.71C344.86,570.12,358.68,561,358.68,543.94Z"/><rect class="cls-3" x="204.27" y="454.08" width="236.66" height="255.41" rx="26.19"/><rect class="cls-4" x="1" y="1" width="236.66" height="255.41" rx="26.19"/><path class="cls-2" d="M652,629.17a15.63,15.63,0,0,1-15.62,15.64H577.48a15.63,15.63,0,0,1-15.62-15.64V539a15.62,15.62,0,0,1,15.62-15.62h58.93A15.62,15.62,0,0,1,652,539Z"/><rect class="cls-2" x="577.1" y="509.08" width="59.69" height="14.28"/><rect class="cls-2" x="561.86" y="558.07" width="90.17" height="44.9"/><path class="cls-2" d="M639.85,581.79A32.91,32.91,0,1,1,607,548.88,32.9,32.9,0,0,1,639.85,581.79Z"/><rect class="cls-3" x="487.34" y="449.49" width="236.66" height="255.41" rx="26.19"/></g></g></svg>