<svg xmlns="http://www.w3.org/2000/svg" viewBox="0 0 2075.66 873.86"><defs><style>.cls-1{fill:#ff4950;}.cls-10,.cls-13,.cls-14,.cls-16,.cls-17,.cls-18,.cls-2{fill:none;}.cls-2,.cls-5{stroke:#616368;}.cls-10,.cls-13,.cls-14,.cls-16,.cls-17,.cls-18,.cls-2,.cls-5{stroke-miterlimit:10;}.cls-14,.cls-16,.cls-17,.cls-18,.cls-2,.cls-5{stroke-width:2px;}.cls-3{fill:#ffa18d;}.cls-4{fill:#0a1a33;}.cls-5{fill:#080808;}.cls-6{fill:#656f7e;}.cls-7{fill:#ff8084;}.cls-8{fill:#ff8b8f;}.cls-9{fill:#364358;}.cls-10{stroke:#fff;}.cls-10,.cls-13{stroke-width:3px;}.cls-11{fill:#59544f;}.cls-12{fill:#1cb75a;}.cls-13{stroke:#6d757c;}.cls-14{stroke:#5c5b60;}.cls-15{fill:#5c5b60;}.cls-16{stroke:#dd265a;}.cls-17{stroke:#6b6b72;}.cls-18{stroke:#ff3162;}.cls-19{fill:#fff;}</style></defs><g id="Layer_2" data-name="Layer 2"><g id="Objects"><path class="cls-1" d="M1449.68,143.29A10.5,10.5,0,0,0,1439,152.7a10.49,10.49,0,1,0-20,5.33c4.16,11.19,19.51,17.82,19.51,17.82v-.25c1.23-.48,15.73-6.4,20.16-16.92a10.5,10.5,0,0,0-9.06-15.39Z"/><path class="cls-2" d="M1769.73,352.05c-3.28-.86-209.19,190.48-209.19,190.48L1428.31,387.08l-48.8,40.75s146,262.39,166.81,258.78S1779.6,511.94,1779.6,511.94,1828.31,367.36,1769.73,352.05Z"/><path class="cls-3" d="M1612.39,609s-50-64.87-51.85-66.43c-1.42-1.23-48.84-8-69.19-10.85a7.81,7.81,0,0,0-8.81,8.76c.61,4.75,6.78,8.26,9.8,10.1,10.45,6.38,40.54,7.81,42.1,16.47s-56.2,16.48-56.2,16.48-57.68-6.73-62.78-4.28,2.79,26.64,19.78,36.67,147,36.63,147,36.63Z"/><path class="cls-4" d="M1582.2,655a2.07,2.07,0,0,1-.5,0c-5.33-1.09-130.57-26.79-147.73-36.92-14.32-8.46-22.91-26.71-22.53-35.55.15-3.48,1.68-4.93,2.94-5.54,5.3-2.54,49.77,2.38,63.83,4,2.07-.29,14.14-2,26.38-4.54,23.8-4.92,27-8.52,27.36-9.13-1-3.45-12.94-6.29-20.91-8.17s-15.41-3.65-20-6.46l-.47-.28c-3.42-2.07-9.77-5.92-10.51-11.63a10.31,10.31,0,0,1,11.64-11.56c68.35,9.6,69.58,10.66,70.48,11.44,1.85,1.6,40.42,51.53,52.19,66.79a2.49,2.49,0,0,1,.08,3l-30.2,43.56A2.49,2.49,0,0,1,1582.2,655Zm-165.54-73.58c-.19.42-.46,1.83.12,4.66,1.79,8.81,9.31,21.48,19.74,27.64,15.43,9.12,129.56,32.9,144.56,36L1609.3,609c-19-24.67-46.72-60.37-50.21-64.4-3.89-1.12-29.67-5.09-68.09-10.49a5.31,5.31,0,0,0-6,6c.43,3.32,5.45,6.36,8.14,8l.48.29c3.92,2.39,11.36,4.15,18.55,5.85,12.61,3,23.5,5.56,24.71,12.31a4.73,4.73,0,0,1-1,3.72c-6.07,8.35-48.86,14.52-57.38,15.68a2.57,2.57,0,0,1-.62,0C1450.87,582.81,1420.84,580.29,1416.66,581.43Z"/><path class="cls-4" d="M1504.47,605.55l-.32,0c-.2,0-20.56-2.58-34.12-3.38-13.78-.81-52.39-7.35-54-7.63a2.5,2.5,0,1,1,.84-4.93c.4.07,40,6.77,53.48,7.57,13.73.81,34.25,3.38,34.46,3.41a2.5,2.5,0,0,1-.31,5Z"/><path class="cls-4" d="M1496.39,618.38h-.31l-35.95-4.46a.63.63,0,0,1-.19,0l-36.61-7.56a2.5,2.5,0,0,1,1-4.9l36.51,7.54,35.85,4.44a2.5,2.5,0,0,1-.31,5Z"/><path class="cls-5" d="M2020,371.3a93.49,93.49,0,0,1,29,22.14A110.7,110.7,0,0,1,2070.22,437c18.4,78.93-26.39,213.73-26.39,213.73-14.62,45.88-38.95,118.2-69.84,221.57-112.1-1.61-224.19,1.78-336.28.16,0,0,38-364.54,73.45-442.72s69.73-82.09,69.73-82.09A337.2,337.2,0,0,1,2020,371.3Z"/><path class="cls-2" d="M2053,550.54s-151.73,244-187.37,250.3-289-143.36-289-143.36l35.73-57.82,216.19,71.26L1967,472.77"/><path class="cls-3" d="M1422.4,366.91l-23.75-30.24a15.71,15.71,0,0,0-2.62-2.6c-.16-.29-.33-.58-.52-.86l-43.69-63.5a9.64,9.64,0,0,0-13.41-2.48h0a9.66,9.66,0,0,0-2.48,13.41l38,55.3-3.22,2.53-49-56.34a9.64,9.64,0,0,0-13.61-.95h0a9.64,9.64,0,0,0-1,13.6l48.36,55.62-16.62,13.06a15.87,15.87,0,0,0-2.67,22.21L1360,415.91a36.2,36.2,0,0,0,50.68,6.09l5.6-4.41A36.2,36.2,0,0,0,1422.4,366.91Z"/><path class="cls-4" d="M1388.45,432.19a38.54,38.54,0,0,1-30.39-14.74l-23.75-30.24a18.34,18.34,0,0,1,3.09-25.72L1352,350.06l-46.63-53.64a12.15,12.15,0,0,1,1.19-17.13,12.16,12.16,0,0,1,17.13,1.2l43.81,50.37-33.58-48.8a12.15,12.15,0,0,1,20-13.77l43.68,63.51c.15.2.28.41.41.62a18.23,18.23,0,0,1,2.64,2.71l23.76,30.24a38.71,38.71,0,0,1-6.51,54.19l-5.61,4.4A38.42,38.42,0,0,1,1388.45,432.19Zm-74-150.87a7.13,7.13,0,0,0-5.39,11.82l48.36,55.62a2.51,2.51,0,0,1-.34,3.61l-16.62,13.05a13.33,13.33,0,0,0-2.25,18.7L1362,414.36a33.63,33.63,0,0,0,47.17,5.67l5.61-4.4a33.7,33.7,0,0,0,5.67-47.17h0l-23.76-30.24a13,13,0,0,0-2.2-2.19,2.59,2.59,0,0,1-.64-.76c-.12-.22-.25-.43-.39-.64l-43.68-63.5a7.16,7.16,0,0,0-9.94-1.84,7.17,7.17,0,0,0-1.84,9.94l38,55.3a2.49,2.49,0,0,1-.51,3.38l-3.23,2.53a2.5,2.5,0,0,1-3.43-.33l-49-56.34A7.13,7.13,0,0,0,1314.48,281.32Z"/><path class="cls-3" d="M1429.07,397.25a169.72,169.72,0,0,0,3-42.29c-1.1-19.58-6.07-44.13-6.07-44.13h0a7.81,7.81,0,0,0-8.78-7.1c-4.17.59-7.47,4.23-8,8.9-1.58,9.91-1.55,24.43-1.72,33.56-9.86,11.47-13,21.17-12.52,41"/><path class="cls-4" d="M1429.07,399.75a2.59,2.59,0,0,1-.48,0,2.5,2.5,0,0,1-2-2.93,169.33,169.33,0,0,0,3-41.68c-1.09-19.17-6-43.53-6-43.77a2.89,2.89,0,0,1,0-.29,5.29,5.29,0,0,0-2-3.73,5.2,5.2,0,0,0-3.93-1.11c-3,.44-5.48,3.21-5.89,6.72a.41.41,0,0,1,0,.11c-1.33,8.32-1.5,20.28-1.62,29,0,1.49,0,2.9-.07,4.2a2.48,2.48,0,0,1-.6,1.58c-9.59,11.15-12.37,20.33-11.92,39.29a2.49,2.49,0,0,1-2.44,2.55,2.47,2.47,0,0,1-2.56-2.43c-.47-19.8,2.59-30.15,12.54-42,0-1,0-2.13,0-3.28.13-8.87.3-21,1.67-29.68.7-5.74,4.86-10.28,10.14-11a10.18,10.18,0,0,1,7.76,2.15,10.39,10.39,0,0,1,3.86,7.07c.4,2,5,25.57,6.09,44.34a173.48,173.48,0,0,1-3.07,42.92A2.49,2.49,0,0,1,1429.07,399.75Z"/><path class="cls-3" d="M1333.73,355.77,1357,375.92a9.63,9.63,0,0,0,13.6-1h0a9.65,9.65,0,0,0-1-13.6l-23.29-20.15a9.63,9.63,0,0,0-13.6,1h0A9.63,9.63,0,0,0,1333.73,355.77Z"/><path class="cls-3" d="M1324.62,374.36l23.29,20.15a9.64,9.64,0,0,0,13.6-1h0a9.63,9.63,0,0,0-1-13.6l-23.29-20.15a9.65,9.65,0,0,0-13.6,1h0A9.66,9.66,0,0,0,1324.62,374.36Z"/><path class="cls-4" d="M1371.27,359.45,1348,339.3a12.14,12.14,0,0,0-18.2,15.69,12.13,12.13,0,0,0-6.8,21.26l23.28,20.15a12.14,12.14,0,0,0,18.2-15.69,12.13,12.13,0,0,0,6.8-21.26Zm-11.65,32.44a7.16,7.16,0,0,1-10.08.73l-23.28-20.15a7.15,7.15,0,0,1,9.35-10.81l23.28,20.15a7.15,7.15,0,0,1,.73,10.08Zm9.11-18.58a7.14,7.14,0,0,1-10.08.72l-23.28-20.15a7.14,7.14,0,1,1,9.35-10.8L1368,363.23a7.15,7.15,0,0,1,.73,10.08Z"/><path class="cls-6" d="M1757.75,163.2c-2.57-5-30.74-120.41,64.3-136.1S1970,49,1986.5,72.3s19.77,91.17-4.77,128-53.59,93.47-49.3,128.41Z"/><path class="cls-4" d="M1932.43,331a2.29,2.29,0,0,1-1.55-.62L1756.2,164.83a2.2,2.2,0,0,1-.45-.6c-1.8-3.51-15.35-57,4.9-97.18,11.7-23.23,32.23-37.42,61-42.17,42.41-7,80.37-4.28,112.83,8.07,33.22,12.65,48.71,30.82,53.82,38,8.49,12,13.63,35.08,13.44,60.27-.22,27.67-6.84,53.3-18.17,70.31-40.21,60.39-51.49,106.09-48.94,126.88a2.23,2.23,0,0,1-1.22,2.28A2.16,2.16,0,0,1,1932.43,331Zm-172.8-169.1,170.15,161.23c-.83-34.61,24.77-86,50.08-124,10.85-16.3,17.2-41,17.41-67.85.19-24.3-4.64-46.39-12.61-57.63-16.73-23.64-69.74-59.55-162.24-44.28-27,4.45-46.27,17.56-57.35,39C1745.9,105.35,1757.53,156.4,1759.63,161.88Z"/><path class="cls-3" d="M1851.8,346.88l-10.32-53.08,91-72c.42-2.46-9.79,107.14,13.77,129.41,0,0-91,59.87-117.41,67.89Z"/><path class="cls-4" d="M1828.81,421.35a2.25,2.25,0,0,1-2.14-2.93l22.81-71.68-10.21-52.51a2.25,2.25,0,0,1,.81-2.19l90.82-71.88a2.21,2.21,0,0,1,1.83-.63c1.59.19,1.93,1.18,1.94,2.65h0v0c0,.51,0,1.07-.09,1.68-4.68,66.48.24,113.46,13.18,125.7a2.24,2.24,0,0,1-.31,3.51c-3.72,2.45-91.53,60.14-118,68.16A2.05,2.05,0,0,1,1828.81,421.35ZM1844,294.72l10,51.73a2.32,2.32,0,0,1-.06,1.11l-21.61,67.91c27.35-10.82,97.08-56,110.43-64.69-8.29-10.09-13-32-14.16-65.34-.58-17.48-.15-37.23,1.28-58.73Z"/><path class="cls-3" d="M1744,143.74c-10.85,63.5,32.27,169.7,80.86,178s96.77-36.45,107.62-99.95-19.75-121.7-68.34-130S1754.82,80.25,1744,143.74Z"/><path class="cls-4" d="M1836.45,325a70.62,70.62,0,0,1-12-1c-23-3.93-47.1-30-64.4-69.62-16.51-37.85-23.52-80.38-18.3-111,5-29.13,21-47.53,47.56-54.69,24-6.47,52.81-2.91,75.18.91,49.74,8.5,81.22,68,70.18,132.6C1924.52,281.59,1881.9,325,1836.45,325ZM1744,143.74l2.22.38c-5.09,29.79,1.8,71.33,18,108.42,16.7,38.27,39.51,63.31,61,67a67.15,67.15,0,0,0,11.27,1c43.29,0,84-41.83,93.76-99.06,10.62-62.17-19.22-119.32-66.5-127.4-21.93-3.75-50.07-7.25-73.26-1-25.08,6.75-39.57,23.47-44.29,51.1Z"/><path class="cls-3" d="M1764.75,183.78a91.09,91.09,0,0,1-17.33,36,12.46,12.46,0,0,0,5.34,19.38l8.55,3.28"/><path class="cls-4" d="M1761.31,244.73a2.32,2.32,0,0,1-.81-.15L1752,241.3a14.66,14.66,0,0,1-9-10,14.44,14.44,0,0,1,2.7-12.92,89.67,89.67,0,0,0,16.87-35,2.25,2.25,0,0,1,4.42.83,92.43,92.43,0,0,1-17.78,37,10,10,0,0,0-1.86,8.93,10.21,10.21,0,0,0,6.25,6.94l8.55,3.28a2.25,2.25,0,0,1-.81,4.35Z"/><path class="cls-7" d="M1778.67,254.38s29.51,12.06,79.22,2.17C1857.89,256.55,1834.55,329.88,1778.67,254.38Z"/><path class="cls-8" d="M1803.1,277.07s19.09-9.33,44.23-1.45"/><path class="cls-4" d="M1859.43,255.17a2,2,0,0,0-2-.65c-48.42,9.63-77.74-1.94-78-2.06a2.07,2.07,0,0,0-2.45,3.15c17.2,23.23,33.22,35,47.71,35a27,27,0,0,0,4.31-.35c21.21-3.52,30.46-31.85,30.84-33.05A2.07,2.07,0,0,0,1859.43,255.17Zm-31.1,31c-7.33,1.21-15.28-1.29-23.77-7.45,3.11-1.33,19-7.33,39.38-1.89C1839.84,281.33,1834.65,285.1,1828.33,286.14Zm18.48-12.83c-25.06-7.41-43.83,1.51-44.62,1.9a2,2,0,0,0-.93.92,117.7,117.7,0,0,1-16.94-17.78c10.93,2.94,35.35,7.28,70.32.93A67.43,67.43,0,0,1,1846.81,273.31Z"/><path class="cls-4" d="M1788.82,171.13a3.6,3.6,0,0,1-2.83-5.82c15-19.12,48.83-13.85,50.26-13.62a3.6,3.6,0,1,1-1.15,7.11h0c-.31-.05-31.07-4.81-43.45,11A3.59,3.59,0,0,1,1788.82,171.13Z"/><circle class="cls-4" cx="1816.94" cy="191.36" r="9.16"/><path class="cls-4" d="M1759.55,188.07a7.48,7.48,0,1,1-7.6-7.37A7.48,7.48,0,0,1,1759.55,188.07Z"/><circle class="cls-7" cx="1868.94" cy="228.63" r="11.61" transform="translate(166 1031.87) rotate(-32.23)"/><path class="cls-9" d="M1872,42c37.53-39.81,128.43-6.75,129.44,76.23l-62.56,28.16a73,73,0,0,1-81.42-14.7c-9.43-9.37-18.08-18.6-22.24-24.74C1823.47,89.56,1872,42,1872,42Z"/><path class="cls-4" d="M1909.05,155a75.46,75.46,0,0,1-53.16-21.74c-11.2-11.12-18.78-19.56-22.51-25.07-5.48-8.07-.76-22.07,14-41.6a272.76,272.76,0,0,1,23-26.18c16.92-17.92,45.82-22.49,73.63-11.64,28.46,11.09,59.07,40.41,59.67,89.41a2.24,2.24,0,0,1-1.32,2.08l-62.57,28.16A74.9,74.9,0,0,1,1909.05,155Zm5.08-127.56c-16,0-30.52,5.52-40.48,16.08l-.06.07A267.51,267.51,0,0,0,1851,69.32c-13.1,17.3-18,30.19-13.88,36.32,3.58,5.27,11,13.48,22,24.4A71.15,71.15,0,0,0,1938,144.29l61.22-27.55c-1.16-45.89-30-73.36-56.78-83.81A78.08,78.08,0,0,0,1914.13,27.41ZM1872,42h0Z"/><path class="cls-9" d="M1835.24,106.9c-71.44,15.22-124.16,4.52-132.72-19.73-1.25-3.52-6.19-20.43,22.12-51.5a177,177,0,0,1,55.5-26.47c13.18-3.64,37.76-10.16,67.5-5.09,29.17,5,60.34,20.57,60.34,20.57s-13.55,8.25-28.48,19.08c-29.34,21.28-35,31.25-36.69,34.49A66.17,66.17,0,0,0,1835.24,106.9Z"/><path class="cls-4" d="M1773.83,116.13c-38.86,0-67-10-73.44-28.21C1693.73,69.07,1714,44,1723,34.16a2.17,2.17,0,0,1,.36-.32A178.48,178.48,0,0,1,1779.54,7c12.22-3.37,37.63-10.4,68.48-5.14,29.16,5,60.65,20.62,61,20.77a2.25,2.25,0,0,1,.16,3.94c-.13.08-13.65,8.34-28.33,19-19.48,14.13-31.6,25.48-36,33.73a63.53,63.53,0,0,0-7.3,27.68,2.25,2.25,0,0,1-1.78,2.11A300.64,300.64,0,0,1,1773.83,116.13Zm-47.68-78.76c-6.78,7.46-27.48,32.16-21.51,49.05,4,11.27,18.55,19.51,41,23.2,23.65,3.88,54.64,2.26,87.42-4.56a67.66,67.66,0,0,1,7.75-27.88c1.77-3.3,7.15-13.34,37.35-35.25,10.34-7.49,20.11-13.82,25.12-17-9-4.19-33.31-14.75-56-18.62-29.85-5.08-54.62,1.76-66.52,5A173.83,173.83,0,0,0,1726.15,37.37Zm109.09,69.53h0Z"/><path class="cls-4" d="M1833,100.28c-1.6,0-15.4-.22-35.39-7.47-19.12-6.93-47.74-21.92-75.48-54a2.25,2.25,0,0,1,3.4-2.94c27,31.21,54.82,45.82,73.39,52.59,20.12,7.33,34,7.27,34.17,7.28h0a2.25,2.25,0,0,1,0,4.5Z"/><path class="cls-4" d="M1921.69,143.49a2.25,2.25,0,0,1-2.18-1.71c-16.24-66.38-68.06-69.86-68.58-69.88a2.25,2.25,0,0,1,.24-4.5c.57,0,14.19.85,30,10.33,14.56,8.7,33.79,26.7,42.66,63a2.25,2.25,0,0,1-1.65,2.72A2.48,2.48,0,0,1,1921.69,143.49Z"/><path class="cls-4" d="M1893,140.14a2.26,2.26,0,0,1-2.25-2.17h0c0-.3-1.48-30.71-26.72-46.39a2.25,2.25,0,0,1,2.38-3.82c27.31,17,28.79,48.7,28.84,50.05a2.26,2.26,0,0,1-2.17,2.33Z"/><path class="cls-4" d="M1856.21,54.73a2.24,2.24,0,0,1-1.91-1.07c-.18-.28-17.32-27.53-37.4-23.5a2.25,2.25,0,1,1-.89-4.41c9.7-1.95,20.09,1.92,30.07,11.17a76.76,76.76,0,0,1,12,14.37,2.26,2.26,0,0,1-1.91,3.44Z"/><path class="cls-3" d="M1924.87,181.37s6.64-23.09,31.13-12.85,13.1,43.49-1.35,49.23c-14.8,5.88-30.11,4.95-30.11,4.95"/><path class="cls-4" d="M1927.1,225c-1.58,0-2.55-.05-2.7-.06a2.25,2.25,0,0,1,.27-4.49c.15,0,15,.82,29.15-4.79,7.62-3,14.14-14.65,14.23-25.37.06-6.5-2.14-15.19-12.92-19.69-7-2.94-13.1-3.23-18-.86-7.51,3.6-10,12.16-10.07,12.25a2.25,2.25,0,1,1-4.32-1.24c.12-.43,3.14-10.6,12.44-15.07,6.15-3,13.45-2.69,21.72.76,10.21,4.27,15.78,12.76,15.68,23.89-.11,12.57-7.77,25.81-17.06,29.51A80.21,80.21,0,0,1,1927.1,225Z"/><path class="cls-4" d="M1934.82,203.26a1.52,1.52,0,0,1-.42-.06,1.36,1.36,0,0,1-.87-1.7c2.73-8.48,6.79-13.91,12.08-16.13a14.35,14.35,0,0,1,11.25.15,1.35,1.35,0,0,1-1.21,2.42h0a11.75,11.75,0,0,0-9-.06c-4.5,1.91-8,6.77-10.51,14.44A1.33,1.33,0,0,1,1934.82,203.26Z"/><path class="cls-4" d="M1950.4,206.59a1.32,1.32,0,0,1-1.1-.57l-9.22-13a1.35,1.35,0,1,1,2.2-1.56l9.22,13a1.36,1.36,0,0,1-.32,1.89A1.4,1.4,0,0,1,1950.4,206.59Z"/><path class="cls-4" d="M1757.75,166.8a3.56,3.56,0,0,1-2.64-1.16c-3.47-3.75-8.74-7.94-10.75-7.94a3.6,3.6,0,0,1,0-7.2h0c6.1,0,13.79,7.86,16,10.26a3.6,3.6,0,0,1-2.65,6Z"/><path class="cls-10" d="M180.29,733.26c-9.38-29.63-36.55-23.9-43.57-15.82-3.51,4-7.3,4.4-10.14,4.72-2.85-.32-6.64-.69-10.14-4.72-7-8.08-34.46-13.51-44.77,15.82-9.72,27.66,21.62,86,45.76,78.21,2.11-.68,4.35-2.8,9.15-3.2,4.78.4,7,2.58,9.14,3.2C156.27,817.44,190.3,764.9,180.29,733.26Z"/><path class="cls-10" d="M126.73,720.18a32.35,32.35,0,0,0-32.36-32.37"/><path class="cls-10" d="M161.35,679.5s-2.54,15.44-13.23,21.86-25.51,1.37-25.51,1.37,2.54-15.44,13.23-21.85S161.35,679.5,161.35,679.5Z"/><path class="cls-1" d="M1640.49,333.93c-11-34.83-43-28.09-51.2-18.59-4.12,4.74-8.58,5.16-11.91,5.54-3.35-.38-7.8-.8-11.92-5.54-8.25-9.5-40.49-15.88-52.61,18.59-11.42,32.5,25.4,101,53.78,91.9,2.48-.79,5.11-3.29,10.75-3.76,5.62.47,8.23,3,10.74,3.76C1612.27,432.85,1652.26,371.11,1640.49,333.93Z"/><path class="cls-11" d="M1577.55,318.55a38,38,0,0,0-38-38"/><path class="cls-12" d="M1618.23,270.76s-3,18.13-15.54,25.68-30,1.61-30,1.61,3-18.15,15.55-25.68S1618.23,270.76,1618.23,270.76Z"/><path class="cls-13" d="M144.28,413.88s-1.94,13.53-11.38,20.17-22.84,3.9-22.84,3.9,1.94-13.52,11.38-20.17S144.28,413.88,144.28,413.88Z"/><path class="cls-13" d="M110.06,493.06s1.94,13.53,11.38,20.17,22.84,3.9,22.84,3.9S142.34,503.62,132.9,497,110.06,493.06,110.06,493.06Z"/><path class="cls-13" d="M177.36,465.37s-3.11,13.31,3.29,22.93,19.85,11.92,19.85,11.92,3.11-13.3-3.28-22.92S177.36,465.37,177.36,465.37Z"/><path class="cls-13" d="M200.5,430.8s3.11,13.3-3.28,22.93-19.86,11.92-19.86,11.92-3.11-13.3,3.28-22.93S200.5,430.8,200.5,430.8Z"/><path class="cls-13" d="M178.51,465.9s-28.82,33.61-64.12,33.4-63.7-34.18-63.7-34.18,28.82-33.61,64.11-33.39S178.51,465.9,178.51,465.9Z"/><path class="cls-13" d="M50.69,465.12a119.32,119.32,0,0,0,31.48,25.2c20.68,0,31-14.55,31-24.42,0-10.08-10.63-25.2-31.48-25.2A119.34,119.34,0,0,0,50.69,465.12Z"/><path class="cls-13" d="M85.13,460.36a4.95,4.95,0,1,1-4.94-4.95A4.94,4.94,0,0,1,85.13,460.36Z"/><path class="cls-13" d="M437.09,797.13a15.63,15.63,0,0,1-15.63,15.63H362.54a15.62,15.62,0,0,1-15.62-15.63V707a15.62,15.62,0,0,1,15.62-15.63h58.92A15.63,15.63,0,0,1,437.09,707Z"/><rect class="cls-13" x="362.16" y="677.04" width="59.69" height="14.28"/><rect class="cls-13" x="346.92" y="726.02" width="90.17" height="44.9"/><path class="cls-13" d="M424.91,749.74A32.91,32.91,0,1,1,392,716.83,32.91,32.91,0,0,1,424.91,749.74Z"/><path class="cls-13" d="M433.18,166.58c-12.05,0-20.08-6.6-29.39-14.25C393.6,144,382,134.45,364.07,134.45c-27.37,0-48,21.85-48,50.82,0,31.71,25.57,48.31,49.83,50.58a6.69,6.69,0,0,0,1.8.25h68.51a6.52,6.52,0,0,0,2.22-.39,34.76,34.76,0,0,0-5.25-69.13Z"/><path class="cls-13" d="M456.37,200.43a26.78,26.78,0,0,0-26.79-26.78c-27.46,0-36-30.33-65.21-30.33-23.17,0-39.29,18.79-39.29,42,0,25.85,21,40.27,42.72,41.83v.13h64.65v-.15A26.81,26.81,0,0,0,456.37,200.43Z"/><path class="cls-13" d="M396.73,219.73c4.06-2.92,5-8.66,4.65-13.93-.46-6.64-.68-13.33,1.79-19.66,2.09-5.35,2.52-6.94,6.08-10.41-12.55-6.82-25.82-23.63-43.59-23.63C347,152.1,334,167.24,334,185.91c0,20.83,16.9,32.45,34.42,33.72v.1Z"/><path class="cls-13" d="M423.75,179.28a26.91,26.91,0,0,1-4.85-.44c-9.29,5.78-11.19,17.41-10.58,28.71.26,4.59.17,9.43-2,13.44h22.83v-.11a20.85,20.85,0,0,0,18.62-20.74C447.73,188.62,435.26,179.28,423.75,179.28Z"/><path class="cls-13" d="M374.09,177.34a13.93,13.93,0,1,1-13.93-13.93A13.93,13.93,0,0,1,374.09,177.34Z"/><path class="cls-13" d="M399.82,522.44V477H384.18v45.43A9.66,9.66,0,1,0,392,538.16a9.66,9.66,0,1,0,7.81-15.72Z"/><path class="cls-13" d="M426.81,430.66c0-22.87-15.58-41.4-34.8-41.4s-34.82,18.53-34.82,41.4c0,17.07,13.82,26.18,21.1,38.06,1.14,1.85,0,8.71,0,8.71a9.41,9.41,0,0,0,9.41,9.41h8.6a9.41,9.41,0,0,0,9.41-9.41s-1.14-6.86,0-8.71C413,456.84,426.81,447.73,426.81,430.66Z"/><polygon class="cls-13" points="113.06 115.16 124.82 115.16 118.94 137.13 113.06 159.09 107.19 137.13 101.31 115.16 113.06 115.16"/><polygon class="cls-13" points="131.67 129.42 139.97 134.09 126.34 148.57 112.74 163.04 118.06 143.89 123.37 124.75 131.67 129.42"/><polygon class="cls-13" points="95.76 129.48 104.03 124.75 109.48 143.87 114.92 162.98 101.22 148.6 87.5 134.21 95.76 129.48"/><polygon class="cls-13" points="133.69 138.03 139.72 142.62 127.69 152.18 115.65 161.74 121.65 147.59 127.66 133.44 133.69 138.03"/><polygon class="cls-13" points="92.44 138.03 86.41 142.62 98.44 152.18 110.47 161.74 104.47 147.59 98.47 133.44 92.44 138.03"/><path class="cls-13" d="M127.76,248.31c-1,11.78-3.77,19.35-14.72,19.35h0c-9.86,0-11.8-5.93-13.38-17.64-2.68-19.84-8-73.38-8-73.38A21.42,21.42,0,0,1,113,155.23h0a21.42,21.42,0,0,1,21.42,21.41S129.74,225.8,127.76,248.31Z"/><line class="cls-13" x1="92.44" y1="175.91" x2="100.72" y2="175.91"/><line class="cls-13" x1="121.16" y1="183.7" x2="131.63" y2="183.7"/><line class="cls-13" x1="102.67" y1="192.46" x2="108.27" y2="192.46"/><line class="cls-13" x1="111.19" y1="200.25" x2="130.9" y2="200.25"/><line class="cls-13" x1="95.61" y1="210.71" x2="108.75" y2="210.71"/><line class="cls-13" x1="110.21" y1="217.77" x2="122.62" y2="217.77"/><line class="cls-13" x1="120.43" y1="226.04" x2="129.19" y2="226.04"/><line class="cls-13" x1="97.8" y1="236.02" x2="113.13" y2="236.02"/><line class="cls-13" x1="108.99" y1="247.94" x2="126.27" y2="247.94"/><line class="cls-13" x1="103.16" y1="261.33" x2="111.92" y2="261.33"/><line class="cls-13" x1="121.41" y1="254.76" x2="115.56" y2="254.76"/><line class="cls-13" x1="108.02" y1="167.15" x2="118" y2="167.15"/><line class="cls-14" x1="638.06" y1="367.85" x2="1150.66" y2="367.85"/><path class="cls-15" d="M1168.76,367.85c-8.52,3.16-19.09,8.55-25.64,14.27l5.16-14.27-5.16-14.27C1149.67,359.3,1160.24,364.69,1168.76,367.85Z"/><line class="cls-14" x1="638.06" y1="478.61" x2="1150.66" y2="478.61"/><path class="cls-15" d="M1168.76,478.61c-8.52,3.16-19.09,8.56-25.64,14.27l5.16-14.27-5.16-14.26C1149.67,470.06,1160.24,475.45,1168.76,478.61Z"/><line class="cls-14" x1="638.06" y1="589.56" x2="1150.66" y2="589.56"/><path class="cls-15" d="M1168.76,589.56c-8.52,3.16-19.09,8.55-25.64,14.26l5.16-14.26-5.16-14.27C1149.67,581,1160.24,586.4,1168.76,589.56Z"/><rect class="cls-16" x="1" y="59.63" width="236.66" height="255.41" rx="26.19"/><rect class="cls-17" x="272.4" y="59.63" width="236.66" height="255.41" rx="26.19"/><rect class="cls-17" x="1" y="340.8" width="236.66" height="255.41" rx="26.19"/><rect class="cls-18" x="272.4" y="340.8" width="236.66" height="255.41" rx="26.19"/><rect class="cls-18" x="1" y="617.45" width="236.66" height="255.41" rx="26.19"/><rect class="cls-17" x="272.4" y="617.45" width="236.66" height="255.41" rx="26.19"/><rect x="813.41" y="388.61" width="180" height="180" rx="90"/><path class="cls-19" d="M947.5,456a14.54,14.54,0,0,1-.13,1.86l.15-1.14a13.52,13.52,0,0,1-.9,3.31l.43-1a14.56,14.56,0,0,1-1.78,3.05l.67-.87a14.18,14.18,0,0,1-2.36,2.35l.87-.67a14,14,0,0,1-3.05,1.79l1-.44a14.22,14.22,0,0,1-3.32.91l1.15-.15c-.82.1-1.62.1-2.44.14a21,21,0,0,0-3.52.46,16.7,16.7,0,0,0-5.52,2.37A18,18,0,0,0,921.35,478a19.17,19.17,0,0,0-.62,3.76c-.07,1,0,1.94-.17,2.9l.16-1.14a14,14,0,0,1-.91,3.31l.43-1a13.84,13.84,0,0,1-1.78,3l.67-.87a13.87,13.87,0,0,1-2.36,2.36l.87-.67a14.35,14.35,0,0,1-3,1.79l1-.44a14.14,14.14,0,0,1-3.31.91l1.14-.15c-.81.1-1.62.1-2.43.14a20.93,20.93,0,0,0-3.53.46,16.89,16.89,0,0,0-5.52,2.36,18.1,18.1,0,0,0-7.43,10.07,19.94,19.94,0,0,0-.62,3.76c-.07,1,0,1.93-.17,2.9l.16-1.14a14.14,14.14,0,0,1-.91,3.31l.43-1a13.91,13.91,0,0,1-1.78,3l.67-.87a13.87,13.87,0,0,1-2.36,2.36l.87-.67a13.91,13.91,0,0,1-3.05,1.78l1-.43a14.14,14.14,0,0,1-3.31.91l1.14-.15a14.55,14.55,0,0,1-3.73,0l1.14.15a14.14,14.14,0,0,1-3.31-.91l1,.43a13.91,13.91,0,0,1-3-1.78l.87.67a13.87,13.87,0,0,1-2.36-2.36l.67.87a13.91,13.91,0,0,1-1.78-3l.43,1a14.14,14.14,0,0,1-.91-3.31l.16,1.14a51.49,51.49,0,0,1-.13-6.69V462.08c0-2,0-4.06,0-6.09a13.2,13.2,0,0,1,.13-1.88l-.16,1.15a14.22,14.22,0,0,1,.91-3.32l-.43,1a13.91,13.91,0,0,1,1.78-3.05l-.67.87a14.24,14.24,0,0,1,2.36-2.36l-.87.67a14.31,14.31,0,0,1,3-1.78l-1,.43a13.65,13.65,0,0,1,3.31-.9l-1.14.15a51.49,51.49,0,0,1,6.69-.13h48.78a14.85,14.85,0,0,1,1.88.13l-1.15-.15a13.72,13.72,0,0,1,3.32.9l-1-.43a14.31,14.31,0,0,1,3.05,1.78l-.87-.67a14.63,14.63,0,0,1,2.36,2.36l-.67-.87a14.31,14.31,0,0,1,1.78,3.05l-.43-1a13.72,13.72,0,0,1,.9,3.32l-.15-1.15a14.56,14.56,0,0,1,.13,1.87,4.3,4.3,0,1,0,8.59,0,17.91,17.91,0,0,0-9-15.42,19.16,19.16,0,0,0-9.52-2.28H886.13a20.54,20.54,0,0,0-7,.93,17.84,17.84,0,0,0-11.68,13.22,30,30,0,0,0-.37,5.51v51.21A17.81,17.81,0,0,0,870.48,520a18.53,18.53,0,0,0,8,6.12,17.18,17.18,0,0,0,8.75,1,17.89,17.89,0,0,0,8.83-3.87,17.59,17.59,0,0,0,5.28-7.39,17.87,17.87,0,0,0,1-4.46c.15-1.21.08-2.43.24-3.64l-.15,1.14a14.14,14.14,0,0,1,.91-3.31l-.44,1a14.35,14.35,0,0,1,1.79-3l-.67.87a13.87,13.87,0,0,1,2.36-2.36l-.87.67a13.84,13.84,0,0,1,3-1.78l-1,.43a14.14,14.14,0,0,1,3.31-.91l-1.14.16c.81-.11,1.61-.11,2.43-.14a19.86,19.86,0,0,0,3.52-.47,16.59,16.59,0,0,0,5.52-2.36,18.08,18.08,0,0,0,7.44-10.07,19.15,19.15,0,0,0,.61-3.76c.08-1,0-1.93.17-2.9l-.15,1.14a14.14,14.14,0,0,1,.91-3.31l-.44,1a14,14,0,0,1,1.79-3l-.67.87a14.18,14.18,0,0,1,2.35-2.36l-.87.67a14.14,14.14,0,0,1,3-1.78l-1,.43a14,14,0,0,1,3.31-.91l-1.14.16c1.9-.25,3.78-.17,5.68-.55a17,17,0,0,0,5.19-2,18.15,18.15,0,0,0,7.57-9.09,16.79,16.79,0,0,0,1.12-6.15,4.3,4.3,0,1,0-8.59,0Z"/></g></g></svg>